<svg width="223" height="180" viewBox="0 0 223 180" fill="none" xmlns="http://www.w3.org/2000/svg">
<g clip-path="url(#clip0_201_9)">
<g filter="url(#filter0_dd_201_9)">
<path d="M101.058 0C101.058 0 306.972 42.1973 176.128 174.932C178.293 182.048 208.513 170.126 226.692 162.954C230.425 161.481 233.65 160.209 236.02 159.343C243.206 156.717 248.163 152.283 252.97 147.983C259.793 141.879 266.314 136.046 278.478 136.046C280.858 136.046 284.679 136.858 289.465 137.876C312.29 142.726 357.055 152.24 372.023 100.573C382.548 111.162 362.872 164.637 348.686 164.637C302.196 145.577 267.998 169.772 256.711 184.252C253.508 188.127 246.095 197.358 242.068 203.288C238.874 207.992 234.722 206.788 232.009 204.855C236.386 209.092 238.868 214.791 238.408 222.348C246.921 237.305 281.873 216.837 290.559 205.297C299.246 193.758 303.526 188.155 328.997 179.168C351.913 171.082 365.146 184.252 365.146 184.252C365.146 184.252 328.997 241.409 339.979 208.582C346.429 189.302 335.673 201.072 321.34 216.756L321.34 216.756C311.27 227.775 299.434 240.727 290.559 246.199C271.303 258.073 208.193 271.588 194.923 236.669C193.825 243.85 200.14 270.91 215.515 280.085C221.078 282.195 226.436 280.099 232.168 277.858C237.939 275.601 244.089 273.196 251.207 274.79C258.11 276.336 262.978 280.176 267.02 283.366C271.284 286.73 274.63 289.37 278.478 287.828C294.768 281.301 295.562 253.967 284.885 259.262C294.952 247.261 310.254 250.964 307.49 270.554C305.66 283.526 289.644 299.284 275.916 305.637C243.71 320.543 228.296 314.242 218.293 310.153C215.503 309.012 213.134 308.044 210.939 307.755C190.805 305.108 179.783 287.556 174.332 274.79C170.443 262.45 166.097 257.835 161.891 253.369L161.885 253.362C161.302 252.743 160.722 252.127 160.147 251.494L166.914 280.085C166.914 280.085 165.395 290.333 166.914 295.968C169.019 303.775 165.463 313.996 162.409 322.774C158.806 333.13 155.903 341.477 163.821 341.477C178.45 341.477 142.314 392.33 152.839 370.597C157.401 361.176 154.47 355.877 150.286 348.313C144.818 338.427 137.21 324.672 141.385 292.792C143.948 273.751 132.618 267.378 129.031 267.378C128.535 269.534 119.879 268.966 114.845 278.496C112.128 288.47 117.133 286.968 117.133 295.968C115.761 313.97 111.123 314.006 108.897 317.147C104.778 328.795 108.897 328.795 102.49 335.124C85.4064 352.001 79.8137 401.416 79.8137 343.2C79.8137 284.984 90.4716 338.423 92.1686 305.637C92.2381 304.294 92.1152 284.736 92.1686 283.366C92.7262 269.072 93.599 265.426 92.1686 248.846C92.0748 242.285 90.0642 237.274 87.9182 233.055C92.1686 243.022 86.4749 257.318 80.9839 258.377C75.9504 261.024 77.4669 264.384 76.8656 263.671C70.4593 271.084 58.6198 284.32 73.4937 301.263C71.9279 302.296 70.2856 303.183 68.629 303.914C64.9769 305.526 61.2555 306.382 58.1316 306.384C57.9949 307.173 57.9977 308.028 58.1316 308.914C58.316 310.136 58.7492 311.418 59.4091 312.67C59.428 312.698 59.4448 312.73 59.4592 312.764C59.8373 313.659 58.5269 316.359 50.339 320.828C46.0985 326.865 43.2248 330.741 31.5779 335.124C10.0309 342.677 0.506508 336.904 -11.893 308.651C4.16015 313.44 13.0156 313.628 27.9172 302.826L28.1374 302.591L28.4119 302.299L28.955 301.721C36.7946 293.38 41.4979 288.376 37.9841 273.706C35.5336 255.682 39.6413 246.733 45.7472 236.669C38.7537 235.113 22.0264 237.957 10.9729 261.529C8.7979 273.429 -1.92202 279.801 -23.3598 285.909C-45.5539 292.232 -51.7257 278.698 -52.6319 268.991C-56.4451 260.688 -70.3836 243.547 -95.6316 241.409C-69.6963 224.422 -33.5322 231.613 -28.3662 258.352C-28.202 259.201 -27.1553 258.505 -25.7811 257.591C-24.5303 256.759 -23.0083 255.747 -21.6336 255.556L-21.5292 255.489C-10.4774 248.422 -2.04512 243.03 -3.77413 222.903C-1.84 217.788 6.40577 209.87 15.0912 205.431C10.3015 181.248 -22.5247 179.277 -34.8929 178.535C-35.5225 178.497 -36.0991 178.462 -36.6163 178.428C-54.5537 173.345 -63.614 165.192 -66.8171 159.897C-71.2099 148.461 -99.1533 156.191 -108 160.427C-104.339 149.661 -92.7166 128.235 -70.0202 130.777C-59.9533 136.777 -35.7011 147.614 -19.2279 142.954C-14.0767 141.719 -0.00106812 142.107 15.0912 153.544C17.8367 157.426 26.8054 166.784 40.7161 173.153C-58.4244 103.621 101.058 0 101.058 0Z" fill="url(#paint0_radial_201_9)"/>
<path d="M59.4091 184.252C52.3559 180.67 46.1479 176.963 40.7161 173.153M170.671 231.374C176.315 230.853 191.678 228.13 194.923 236.669M35.2386 200.261C23.9222 202.898 20.7897 202.518 15.0912 205.431M71.8456 208.582C62.923 214.667 58.1671 219.01 50.339 229.231C48.7372 231.862 47.1867 234.296 45.7472 236.669M27.9172 302.826C13.0156 313.628 4.16015 313.44 -11.893 308.651C0.506508 336.904 10.0309 342.677 31.5779 335.124C43.2248 330.741 46.0985 326.865 50.339 320.828C58.5269 316.359 59.8373 313.659 59.4592 312.764M27.9172 302.826L28.1374 302.591M27.9172 302.826C27.9908 302.748 28.0642 302.669 28.1374 302.591M87.9182 233.055C92.1686 243.022 86.4749 257.318 80.9839 258.377C75.9504 261.024 77.4669 264.384 76.8656 263.671C70.4593 271.084 58.6198 284.32 73.4937 301.263C71.9279 302.296 70.2856 303.183 68.629 303.914C64.9769 305.526 61.2555 306.382 58.1316 306.384C57.9949 307.173 57.9977 308.028 58.1316 308.914C58.316 310.136 58.7492 311.418 59.4091 312.67M86.0173 212.843C75.9369 223.987 91.9002 230.072 92.1686 248.846C93.599 265.426 92.7262 269.072 92.1686 283.366M125.031 210.221C116.676 246.199 113.454 248.063 120.794 258.377C127.2 267.378 129.354 265.97 129.031 267.378M167.024 195.875C184.92 192.793 215.588 191.617 230.223 203.288M230.223 203.288C230.692 203.799 231.302 204.352 232.009 204.855M230.223 203.288C230.848 203.787 231.444 204.309 232.009 204.855M194.923 236.669C208.193 271.588 271.303 258.073 290.559 246.199C299.434 240.727 311.27 227.775 321.34 216.756C335.673 201.072 346.429 189.302 339.979 208.582C328.997 241.409 365.146 184.252 365.146 184.252C365.146 184.252 351.913 171.082 328.997 179.168C303.526 188.155 299.246 193.758 290.559 205.297C281.873 216.837 246.921 237.305 238.408 222.348C238.868 214.791 236.386 209.092 232.009 204.855M194.923 236.669C193.825 243.85 200.14 270.91 215.515 280.085C221.078 282.195 226.436 280.099 232.168 277.858C237.939 275.601 244.089 273.196 251.207 274.79C258.11 276.336 262.978 280.176 267.02 283.366C271.284 286.73 274.63 289.37 278.478 287.828C294.768 281.301 295.562 253.967 284.885 259.262C294.952 247.261 310.254 250.964 307.49 270.554C305.66 283.526 289.644 299.284 275.916 305.637C243.71 320.543 228.296 314.242 218.293 310.153C215.503 309.012 213.134 308.044 210.939 307.755C190.805 305.108 179.783 287.556 174.332 274.79C170.443 262.45 166.097 257.835 161.891 253.369C161.307 252.748 160.724 252.129 160.147 251.494M160.147 251.494C156.69 249.48 152.59 221.532 147.792 212.843M160.147 251.494L166.914 280.085C166.914 280.085 165.395 290.333 166.914 295.968C169.019 303.775 165.463 313.996 162.409 322.774C158.806 333.13 155.903 341.477 163.821 341.477C178.45 341.477 142.314 392.33 152.839 370.597C157.401 361.176 154.47 355.877 150.286 348.313C144.818 338.427 137.21 324.672 141.385 292.792C143.948 273.751 132.618 267.378 129.031 267.378M92.1686 283.366C92.1152 284.736 92.2381 304.294 92.1686 305.637M92.1686 283.366C92.2647 284.432 92.4097 304.011 92.1686 305.637M45.7472 236.669C39.6413 246.733 35.5336 255.682 37.9841 273.706C41.4979 288.376 36.7946 293.38 28.9551 301.721M45.7472 236.669C38.7537 235.113 22.0264 237.957 10.9729 261.529C8.7979 273.429 -1.92202 279.801 -23.3598 285.909C-45.5539 292.232 -51.7257 278.698 -52.6319 268.991C-56.4451 260.688 -70.3836 243.547 -95.6316 241.409C-69.6963 224.422 -33.5322 231.613 -28.3662 258.352C-28.202 259.201 -27.1553 258.505 -25.7811 257.591C-24.5303 256.759 -23.0083 255.747 -21.6336 255.556M-21.6336 255.556L-21.5292 255.489M-21.6336 255.556C-21.5988 255.533 -21.564 255.511 -21.5292 255.489M59.4091 312.67C59.428 312.698 59.4448 312.73 59.4592 312.764M59.4091 312.67C59.4209 312.692 59.4328 312.714 59.4448 312.737M59.4091 312.67L59.4448 312.737M129.031 267.378C128.535 269.534 119.879 268.966 114.845 278.496C112.128 288.47 117.133 286.968 117.133 295.968C115.761 313.97 111.123 314.006 108.897 317.147C104.778 328.795 108.897 328.795 102.49 335.124C85.4064 352.001 79.8137 401.416 79.8137 343.2C79.8137 284.984 90.4716 338.423 92.1686 305.637M15.0912 205.431C6.40577 209.87 -1.84 217.788 -3.77413 222.903C-2.04512 243.03 -10.4774 248.422 -21.5292 255.489M15.0912 205.431C10.3015 181.248 -22.5247 179.277 -34.8929 178.535C-35.5225 178.497 -36.0991 178.462 -36.6163 178.428C-54.5537 173.345 -63.614 165.192 -66.8171 159.897C-71.2099 148.461 -99.1533 156.191 -108 160.427C-104.339 149.661 -92.7166 128.235 -70.0202 130.777C-59.9533 136.777 -35.7011 147.614 -19.2279 142.954C-14.0767 141.719 -0.00106602 142.107 15.0912 153.544C17.8367 157.426 26.8054 166.784 40.7161 173.153M40.7161 173.153C-58.4244 103.621 101.058 0 101.058 0C101.058 0 306.972 42.1973 176.128 174.932C178.293 182.048 208.513 170.126 226.692 162.954C230.425 161.481 233.65 160.209 236.02 159.343C243.206 156.717 248.163 152.283 252.97 147.983C259.793 141.879 266.314 136.046 278.478 136.046C280.858 136.046 284.679 136.858 289.465 137.876C312.29 142.726 357.055 152.24 372.023 100.573C382.548 111.162 362.872 164.637 348.686 164.637C302.196 145.577 267.998 169.772 256.711 184.252C253.508 188.127 246.095 197.358 242.068 203.288C238.874 207.992 234.722 206.788 232.009 204.855M59.4592 312.764L59.4448 312.737M59.4592 312.764C59.4544 312.755 59.4496 312.746 59.4448 312.737M28.4119 302.299C28.5945 302.104 28.7756 301.912 28.9551 301.721M28.4119 302.299L28.9551 301.721M28.4119 302.299C28.3208 302.396 28.2293 302.493 28.1374 302.591M28.4119 302.299L28.1374 302.591" stroke="black"/>
</g>
<path fill-rule="evenodd" clip-rule="evenodd" d="M143.588 129.085C124.088 134.085 110.432 73.6268 135.088 71.0846C159.744 68.5424 163.088 124.085 143.588 129.085ZM100.794 137C81.2941 142 67.6382 81.5422 92.2941 79C116.95 76.4578 120.294 132 100.794 137Z" fill="#FFFBFB"/>
<path d="M143.588 129.085L143.464 128.6L143.464 128.6L143.588 129.085ZM135.088 71.0846L135.14 71.582L135.088 71.0846ZM100.794 137L100.67 136.516L100.67 136.516L100.794 137ZM92.2941 79L92.2428 78.5027L92.2941 79ZM143.464 128.6C138.89 129.773 134.565 127.14 130.971 122.195C127.389 117.266 124.646 110.174 123.271 102.821C121.896 95.4662 121.9 87.9162 123.749 82.0736C125.593 76.2468 129.237 72.1905 135.14 71.582L135.037 70.5873C128.611 71.2498 124.716 75.7041 122.796 81.7719C120.88 87.8238 120.894 95.5525 122.288 103.005C123.683 110.459 126.469 117.702 130.162 122.783C133.842 127.847 138.536 130.896 143.712 129.569L143.464 128.6ZM135.14 71.582C141.078 70.9697 145.75 73.8382 149.152 78.6597C152.563 83.4959 154.665 90.2659 155.399 97.3082C156.134 104.347 155.496 111.603 153.482 117.391C151.462 123.192 148.103 127.411 143.464 128.6L143.712 129.569C148.824 128.258 152.359 123.659 154.426 117.72C156.498 111.766 157.14 104.358 156.394 97.2044C155.648 90.0539 153.509 83.1025 149.969 78.0833C146.418 73.0494 141.426 69.9285 135.037 70.5873L135.14 71.582ZM100.67 136.516C96.0961 137.688 91.7709 135.056 88.1767 130.11C84.5947 125.182 81.8524 118.089 80.4771 110.736C79.1015 103.382 79.1059 95.8316 80.955 89.989C82.7992 84.1622 86.4432 80.1059 92.3454 79.4974L92.2428 78.5027C85.8171 79.1652 81.9221 83.6195 80.0017 89.6873C78.0862 95.7392 78.1003 103.468 79.4942 110.92C80.8884 118.375 83.6753 125.618 87.3677 130.698C91.0479 135.762 95.7421 138.812 100.918 137.484L100.67 136.516ZM92.3454 79.4974C98.2841 78.8851 102.956 81.7536 106.358 86.5751C109.769 91.4113 111.871 98.1813 112.605 105.224C113.34 112.263 112.702 119.519 110.688 125.306C108.668 131.108 105.309 135.326 100.67 136.516L100.918 137.484C106.03 136.174 109.565 131.574 111.632 125.635C113.704 119.681 114.346 112.273 113.6 105.12C112.854 97.9693 110.715 91.0179 107.175 85.9987C103.624 80.9648 98.6321 77.8439 92.2428 78.5027L92.3454 79.4974Z" fill="black"/>
<path fill-rule="evenodd" clip-rule="evenodd" d="M85.2941 127C88.6949 133.2 94.3231 137.384 99.8133 137.384C106.319 137.384 110.762 128.831 112.126 118.309C111.917 84.2431 77.599 87.7999 85.2941 127ZM129.294 120C132.695 126.2 135.858 128.397 141.348 128.397C147.854 128.397 153.93 122.522 155.294 112C155.085 77.9343 121.599 80.7999 129.294 120Z" fill="url(#paint1_linear_201_9)"/>
<path d="M109.914 150.455C113.117 160.527 120.624 166.318 139.104 150.455M108.592 152.344L111.794 148M99.8133 137.384C94.3231 137.384 88.6949 133.2 85.2941 127C77.599 87.7999 111.917 84.2431 112.126 118.309C110.762 128.831 106.319 137.384 99.8133 137.384ZM141.348 128.397C135.858 128.397 132.695 126.2 129.294 120C121.599 80.7999 155.085 77.9343 155.294 112C153.93 122.522 147.854 128.397 141.348 128.397Z" stroke="black"/>
<path fill-rule="evenodd" clip-rule="evenodd" d="M138.294 109C140.227 109 141.794 106.538 141.794 103.5C141.794 100.462 140.227 98 138.294 98C136.361 98 134.794 100.462 134.794 103.5C134.794 106.538 136.361 109 138.294 109ZM94.2941 117C96.2271 117 97.7941 114.314 97.7941 111C97.7941 107.686 96.2271 105 94.2941 105C92.3611 105 90.7941 107.686 90.7941 111C90.7941 114.314 92.3611 117 94.2941 117ZM100.794 130C101.899 130 102.794 128.657 102.794 127C102.794 125.343 101.899 124 100.794 124C99.6896 124 98.7941 125.343 98.7941 127C98.7941 128.657 99.6896 130 100.794 130ZM146.794 120.5C146.794 122.985 145.675 125 144.294 125C142.913 125 141.794 122.985 141.794 120.5C141.794 118.015 142.913 116 144.294 116C145.675 116 146.794 118.015 146.794 120.5Z" fill="#FFF5F5"/>
</g>
<defs>
<filter id="filter0_dd_201_9" x="-112.856" y="-0.530975" width="492.356" height="385.03" filterUnits="userSpaceOnUse" color-interpolation-filters="sRGB">
<feFlood flood-opacity="0" result="BackgroundImageFix"/>
<feColorMatrix in="SourceAlpha" type="matrix" values="0 0 0 0 0 0 0 0 0 0 0 0 0 0 0 0 0 0 127 0" result="hardAlpha"/>
<feOffset dy="4"/>
<feGaussianBlur stdDeviation="2"/>
<feColorMatrix type="matrix" values="0 0 0 0 0 0 0 0 0 0 0 0 0 0 0 0 0 0 0.25 0"/>
<feBlend mode="normal" in2="BackgroundImageFix" result="effect1_dropShadow_201_9"/>
<feColorMatrix in="SourceAlpha" type="matrix" values="0 0 0 0 0 0 0 0 0 0 0 0 0 0 0 0 0 0 127 0" result="hardAlpha"/>
<feOffset dy="4"/>
<feGaussianBlur stdDeviation="2"/>
<feColorMatrix type="matrix" values="0 0 0 0 0 0 0 0 0 0 0 0 0 0 0 0 0 0 0.25 0"/>
<feBlend mode="normal" in2="effect1_dropShadow_201_9" result="effect2_dropShadow_201_9"/>
<feBlend mode="normal" in="SourceGraphic" in2="effect2_dropShadow_201_9" result="shape"/>
</filter>
<radialGradient id="paint0_radial_201_9" cx="0" cy="0" r="1" gradientUnits="userSpaceOnUse" gradientTransform="translate(133.5 188) rotate(90) scale(188 241.5)">
<stop stop-color="#FFA7C4"/>
<stop offset="1" stop-color="#CD819A"/>
</radialGradient>
<linearGradient id="paint1_linear_201_9" x1="156.914" y1="70.299" x2="156.914" y2="160.299" gradientUnits="userSpaceOnUse">
<stop offset="0.3125" stop-color="#0A0808"/>
<stop offset="1" stop-color="#38429B" stop-opacity="0"/>
</linearGradient>
<clipPath id="clip0_201_9">
<rect width="223" height="180" fill="white"/>
</clipPath>
</defs>
</svg>
